<?xml version="1.0" encoding="UTF-8" standalone="no"?>
<!-- Created with Inkscape (http://www.inkscape.org/) -->

<svg
   version="1.1"
   id="svg1"
   width="266"
   height="268"
   viewBox="0 0 266 268"
   xmlns="http://www.w3.org/2000/svg"
   xmlns:svg="http://www.w3.org/2000/svg">
  <defs
     id="defs1" />
  <g
     id="g4">
    <g
       id="g1">
      <path
         style="fill:#000000"
         d="M 98.416667,267.23123 H 97 l 0.01531,-1.25 0.01531,-1.25 0.802288,-1.26389 0.802289,-1.26389 4.932393,0.0465 4.9324,0.0465 2.99557,0.21736 2.99557,0.21736 6.24252,-11 6.24252,-11 2.04155,-6 2.04155,-6 1.51236,-11.46186 1.51237,-11.46186 0.19706,-15.03814 0.19706,-15.03814 -2.36331,-4.78003 -2.36331,-4.78004 -4.38876,-4.88136 -4.38876,-4.88136 -5.62489,-3.8386 -5.62489,-3.83861 -4.6121,-2.53972 -4.6121,-2.53966 -10.327077,-6.76544 -10.327076,-6.76544 -6.672924,-3.57229 -6.672923,-3.57229 -6.640717,-4.88619 -6.640717,-4.88619 -3.468166,-4.23636 -3.468167,-4.23636 -2.49444,-4.999996 -2.49444,-5 -2.07127,-6.5 -2.071269,-6.5 L 33.575407,70.585949 30,59.440663 29.999211,58.085949 29.998422,56.731234 27.088915,50.581125 24.179408,44.431016 22.441642,43.458513 20.703875,42.48601 13.879669,45.858622 7.0554627,49.231234 H 5.1882464 3.3210301 L 2.160515,46.684181 1,44.137128 v -5.440447 -5.440447 l 2.4177484,-9.2625 2.4177483,-9.2625 L 6.8372575,12.127841 7.8390183,9.5244485 12.669509,5.3292511 17.5,1.1340538 l 4,0.6181834 4,0.6181834 4.157178,0.2520893 4.157179,0.2520894 5.818283,3.4283173 5.818283,3.4283173 7.156173,7.1628501 7.156173,7.162851 6.671187,12.837149 6.671188,12.83715 4.697178,7.641322 4.697178,7.641321 3.776171,4.558914 3.776172,4.558914 3.32364,5.88012 3.32364,5.88012 5.329957,6.782238 5.32995,6.782239 4.40314,1.887408 4.40314,1.8874 3.1671,0.0351 3.16709,0.0351 6.18904,1.32819 6.18904,1.32819 5.16956,2.70309 5.16955,2.70309 5.64141,3.81146 5.6414,3.81147 7.5,3.87212 7.5,3.87213 16.81669,0.31668 16.81668,0.31667 7.18332,-1.07243 7.18331,-1.07242 11.29444,-2.7111 11.29443,-2.71111 1.70557,1.09061 1.70556,1.0906 -0.0112,3.15201 -0.0112,3.15201 3.5112,0.87396 3.51121,0.87396 2.87813,0.65149 2.87814,0.6515 2.82065,2.82065 2.82066,2.82065 0.70497,2.80885 0.70497,2.80884 -1.42832,2.54473 -1.42832,2.54473 -2.47544,1.18028 -2.47544,1.18028 -6.7698,2.59428 -6.7698,2.59428 -3.7302,0.006 -3.7302,0.006 -3,1.63167 -3,1.63167 -7,1.30956 -7,1.30956 -14,0.0177 -14,0.0177 -8,-1.4525 -8,-1.45251 -11.75,0.63743 -11.75,0.63743 0.007,1.59996 0.007,1.59996 4.24326,6.52981 4.24326,6.52981 2.65246,3.47019 2.65246,3.47019 6.55407,10.84457 6.55408,10.84458 1.66607,5.65542 1.66606,5.65543 -0.59566,13 -0.59566,13 -1.43654,7 -1.43653,7 -1.22846,5.75 -1.22845,5.75 h -1.73799 -1.73799 l 1.37459,-6.25 1.37459,-6.25 1.62706,-8 1.62705,-8 0.1244,-13.5 0.12439,-13.5 -3.18775,-6.5 -3.18774,-6.5 -5.31226,-8.73319 -5.31225,-8.7332 -5.80449,-7.95456 -5.8045,-7.95456 -0.1955,-4.19294 -0.19551,-4.19293 15.24982,-0.4079 15.24983,-0.4079 4.25017,1.17519 4.25018,1.1752 14.3224,0.23342 14.3224,0.23343 6.77259,-1.29046 6.77258,-1.29045 3.40502,-2.07584 3.40501,-2.07583 3.92482,-0.004 3.92482,-0.004 7.57518,-2.59444 7.57518,-2.59445 2.30232,-2.12902 2.30232,-2.12902 -0.58997,-2.52653 -0.58997,-2.52654 -2.47829,-2.21575 -2.4783,-2.21575 -3.73406,-0.93396 -3.73405,-0.93397 -2.8654,-0.6483 -2.86539,-0.6483 0.57295,-2.86476 0.57295,-2.86477 -1.35802,-1.12705 -1.35802,-1.12706 -7.84953,2.12214 -7.84954,2.12214 -8.5,1.32886 -8.5,1.32886 -20,-0.16116 -20,-0.16117 -6.5,-3.41405 -6.5,-3.41406 -5.72345,-3.85518 -5.72346,-3.85518 -5.705,-3.13094 -5.70499,-3.13094 -7.07155,-1.34865 -7.07155,-1.34864 -2.79966,-0.001 -2.79966,-0.001 -2.90939,-1.5045 -2.90939,-1.5045 -2.29095,-2.298711 -2.29095,-2.298707 -4.114965,-4.946789 -4.114964,-4.946789 -3.30911,-6 -3.30911,-6 -4.210289,-5.024138 -4.210289,-5.024139 -5.754788,-9.475861 -5.754788,-9.475862 -4.04633,-8.5 -4.046331,-8.5 -5.337464,-6.638989 -5.337464,-6.63899 L 40.98248,11.219731 33.010852,5.9862074 25.755426,5.7701125 18.5,5.5540177 l -3.227698,2.0886081 -3.227698,2.0886081 0.45487,1.5000001 0.454869,1.5 -1.042678,1.5 -1.042678,1.5 0.677901,-2.5 0.677901,-2.5 -0.943816,1 -0.943816,1 -1.2399055,4.354087 -1.2399051,4.354087 -0.5230054,1.645913 -0.5230055,1.645913 1.0399593,-1.47104 1.0399592,-1.471039 0.5126211,0.512621 0.5126211,0.512621 -1.5488636,5.958418 -1.5488635,5.958419 -0.4139673,4 -0.4139673,4 0.9723585,-2.25 0.9723586,-2.25 H 8.9677758 10 v -1.5 -1.5 h 1.8 1.8 l 1.191232,-1.191232 1.191233,-1.191233 4.258767,-0.207552 L 24.5,32.433665 17.25,35.93542 10,39.437176 v 1.347339 1.347339 l -1.75,1.019281 -1.75,1.019281 1.6451007,0.03041 1.6451007,0.03041 4.5217746,-4.271221 4.521774,-4.271221 4.123764,-1.100696 4.123764,-1.100695 -0.373505,1.121916 -0.373506,1.121917 -1.917133,0.370211 -1.917134,0.370212 -1.972506,1.379788 -1.972506,1.379789 h 2.548192 2.548192 l 2.067864,2.25 2.067863,2.25 2.065348,5 2.065349,5 1.592542,6.5 1.592543,6.5 1.460443,3.176172 1.460443,3.176171 0.936781,4.823829 0.936781,4.823828 2.150237,6.478417 2.150238,6.478418 2.318659,4.521579 2.318659,4.52158 4.832439,4.55847 4.832439,4.55847 4.5,3.55331 4.5,3.5533 7.5,3.76338 7.5,3.76338 10.316456,6.93176 10.316454,6.93176 4.68355,2.58657 4.68354,2.58657 5.34934,3.51969 5.34934,3.5197 4.98257,5.98716 4.98257,5.98717 0.99395,2.59966 0.99394,2.59965 0.67414,5.5 0.67415,5.5 -0.2351,14 -0.23511,14 -1.05789,8 -1.0579,8 -1.53061,6.5 -1.5306,6.5 -4.73673,9 -4.73672,9 -2.78315,4.37822 -2.78316,4.37822 -5.15652,-0.74306 -5.15651,-0.74306 -2.46929,0.0227 -2.46929,0.0227 -0.36404,1.09213 -0.364047,1.09213 z M 5.5,45.231234 H 6 v -0.5 -0.5 H 5.5 5 v 0.5 0.5 z m -0.9818992,-2.206872 0.2710237,-0.293128 -0.7795632,-4 -0.7795631,-4 L 3.1149991,37.399446 3,40.067659 3.6235386,41.692574 4.2470772,43.31749 Z m 0.877394,-10.793128 1.5336344,-2.5 -0.066926,-2.5 -0.066926,-2.5 -0.7739309,3 -0.7739309,3 -0.6927775,2 -0.6927774,2 z M 132.98095,267.23123 H 132 v -2.41364 -2.41364 l 4.62275,-13.33636 4.62275,-13.33636 2.32976,-8.34846 2.32976,-8.34847 0.68754,-10.86551 0.68753,-10.86551 -1.26031,-4.50141 -1.26032,-4.50141 0.75792,-1.78461 0.75792,-1.78462 0.76267,2.5 0.76267,2.5 0.0997,-2.25 0.0997,-2.25 h 0.92054 0.92055 l 0.773,3.25 0.773,3.25 0.22044,2.5 0.22043,2.5 2.58063,9 2.58062,9 1.62536,9.5 1.62537,9.5 -0.6227,8 -0.6227,8 -1.32652,8.24593 -1.32653,8.24592 -0.67074,0.67074 -0.67075,0.67075 -0.49896,-0.49897 -0.49897,-0.49896 1.57541,-10.4177 1.5754,-10.41771 0.49398,-5 0.49398,-5 -1.98176,-11.5 -1.98177,-11.5 -2.01213,-7.34013 -2.01212,-7.34014 -0.57653,-0.57653 L 149,196.8979 v 12.17933 12.17932 l -1.90253,6.73734 -1.90253,6.73734 -4.94972,13.5 -4.94972,13.5 -0.6668,2.75 -0.6668,2.75 z m 15.68572,-74.33333 0.66666,-0.66667 -0.66666,-0.66666 L 148,190.8979 v 1.33333 1.33334 z m 21,62 L 169,255.56457 v -1.33334 -1.33333 l 0.66667,0.66667 0.66666,0.66666 z m 0.27431,-3.66667 h -1.05901 l 0.61803,-1 0.61803,-1 H 170.55902 171 v 1 1 z M 174.66667,221.8979 174,222.56457 v -1.33334 -1.33333 l 0.66667,0.66667 0.66666,0.66666 z M 39.5,74.231234 H 39 v -0.5 -0.5 h 0.5 0.5 v 0.5 0.5 z m -13.5,-42 H 24.666667 L 25.333333,31.564567 26,30.897901 l 0.666667,0.666666 0.666666,0.666667 z m 8.15383,-8 h -1.908941 l -1.147626,-1.382805 -1.147626,-1.382805 3.275182,-0.498669 3.275181,-0.49867 0.373539,0.338346 0.373538,0.338347 -0.592154,1.543128 -0.592153,1.543128 z m -2.65383,-4 H 31 v -0.5 -0.5 h 0.5 0.5 v 0.5 0.5 z M 35.604167,18.960401 35,19.564567 l 0.07895,-1.916666 0.07895,-1.916667 0.525219,1.3125 0.525219,1.3125 z M 32,17.231234 h -2.4 l 1.2,-1.2 1.2,-1.2 1.2,1.2 1.2,1.2 z m -8.559017,-4 H 23 v -1 -1 h 1.059017 1.059017 l -0.618034,1 -0.618034,1 z"
         id="path2" />
      <path
         style="opacity:1;fill:#1a1a1a;fill-opacity:1;stroke:#000000;stroke-width:3.77953;stroke-opacity:1"
         d="m 29.771355,17.284728 c -0.01927,0.06744 -0.05146,0.132476 -0.05781,0.20233 -0.0036,0.03956 0.01799,0.07742 0.0289,0.115617 0.02764,0.09672 0.0549,0.193614 0.08671,0.289042 0.113782,0.341347 0.274825,0.665601 0.375755,1.011648 0.05561,0.19068 0.08745,0.387836 0.144521,0.578085 0.07027,0.23425 0.16762,0.479634 0.20233,0.722605 0.0294,0.205797 -0.07698,0.485081 0.05781,0.664797 0.07698,0.102636 0.56547,0.435627 0.693702,0.346851 0.422128,-0.292242 0.521232,-0.798013 0.578084,-1.271786 0.05812,-0.484352 0.07322,-0.988345 0.08671,-1.474115 0.0084,-0.301609 -0.07382,-0.66186 -0.0289,-0.95384 0.0099,-0.06403 0.233364,-0.192289 0.260138,-0.20233 0.198287,-0.07436 0.479107,0.256982 0.578084,0.375755 0.101034,0.121241 0.179208,0.289046 0.231234,0.433564 0.05471,0.15196 0.108205,0.305096 0.144521,0.462467 0.02177,0.09435 0.01877,0.192747 0.02891,0.289043 0.06614,0.628329 0.01311,1.263523 0.289042,1.84987 0.06386,0.135715 0.186307,0.360383 0.375755,0.346851 1.307365,-0.09338 0.886514,-1.326702 0.780414,-2.196721 -0.0402,-0.329662 -0.07621,-0.800939 -0.144521,-1.156169 -0.05954,-0.309591 -0.160889,-0.598284 -0.260138,-0.896031"
         id="path3" />
    </g>
  </g>
</svg>
