<?xml version="1.0" encoding="UTF-8" standalone="no"?>
<!-- Created with Inkscape (http://www.inkscape.org/) -->

<svg
   version="1.1"
   id="svg1"
   width="639"
   height="306"
   viewBox="0 0 639 306"
   xmlns="http://www.w3.org/2000/svg"
   xmlns:svg="http://www.w3.org/2000/svg">
  <defs
     id="defs1" />
  <g
     id="g1">
    <path
       style="fill:#000000"
       d="m 284,286.43426 v -0.56574 l 1.03518,-1.93426 L 286.07037,282 h 3.72142 3.72141 l 3.33297,0.95588 3.33297,0.95589 2.19893,-2.20589 2.19893,-2.20588 6.23262,-12.5 6.23262,-12.5 1.4292,-7 1.4292,-7 1.16731,-15.39812 1.1673,-15.39812 -0.43092,-8.21012 -0.43092,-8.21012 -2.75108,-5.62302 -2.75109,-5.62301 -5.45203,-5.20343 -5.45203,-5.20343 -5.73359,-3.81213 -5.73359,-3.81213 -0.69854,-0.003 -0.69855,-0.003 -12.80145,-8.359 -12.80146,-8.359 -7,-3.73999 -7,-3.73999 -5.43279,-4.15101 -5.43279,-4.15101 -3.42075,-3.5 -3.42076,-3.5 -2.28753,-4.5018 -2.28752,-4.5018 -2.50834,-6.17304 -2.50833,-6.17304 -0.72301,-4.32516 -0.723,-4.32516 -2.30053,-6.5 -2.30053,-6.5 -2.12678,-7.318944 -2.12679,-7.318944 -3.33739,-3.641724 -3.33739,-3.641724 -8.25648,3.874529 -8.25649,3.874529 -1.34368,-1.837594 -1.34368,-1.837595 -0.62525,-3.332871 -0.62525,-3.332872 0.49733,-2.743395 0.49733,-2.743395 2.18715,-8 2.18716,-8 1.78955,-4.064029 1.78955,-4.064028 4.67361,-3.095669 4.67361,-3.095669 3.47832,0.960411 3.47832,0.960411 1.00612,-0.621813 1.00611,-0.621814 3.645,1.202959 3.645,1.202959 7.33665,4.977859 7.33665,4.977859 4.87414,6.140282 4.87413,6.140282 5.62342,11 5.62342,11 4.04452,6.912903 4.04451,6.912904 3.84411,4.591368 3.84412,4.591368 3.79011,6.495728 3.79012,6.495729 5.18763,6.5 5.18764,6.5 1.88487,1.62702 1.88486,1.62702 3.5,1.05982 3.5,1.05982 8.5,1.18478 8.5,1.18478 5,2.59952 5,2.59953 7.00804,4.64606 7.00805,4.64606 7.48848,3.63279 7.48847,3.6328 17.50348,-0.008 17.50348,-0.008 6.5,-1.00539 6.5,-1.0054 11.24516,-2.69188 11.24517,-2.69189 1.22077,1.22077 1.22077,1.22077 0.0341,3.19239 0.0341,3.19239 5.5,1.11153 5.5,1.11152 2.23965,1.20979 2.23965,1.2098 1.51035,2.92069 1.51035,2.9207 v 1.96077 1.96076 l -3.07673,2.5889 -3.07672,2.58889 h -1.45341 -1.4534 L 435,170.5 429.06026,173 h -3.57979 -3.57979 l -3.20034,1.67569 -3.20034,1.67569 -7,1.2717 -7,1.27171 -12.11901,0.0526 -12.11901,0.0526 -8.66781,-1.51154 -8.6678,-1.51154 -12.71319,0.51287 -12.71318,0.51287 -0.30949,1.92189 -0.30949,1.9219 2.03056,3.82678 2.03055,3.82677 3.97876,5.5 3.97875,5.5 6.85061,11 6.85062,11 1.17679,2.5 1.1768,2.5 1.5999,4.86039 1.5999,4.86038 -0.66997,11.13962 -0.66997,11.13961 -1.44659,7 -1.44659,7 -1.01632,5.5 -1.01632,5.5 -0.51164,1.75 -0.51164,1.75 h -8.5 -8.5 l 0.56865,-1.79164 0.56864,-1.79164 1.06464,-7.45836 1.06464,-7.45836 0.5624,-8.30518 0.56241,-8.30518 -1.20195,-7.69482 -1.20194,-7.69482 -1.95139,-8.5 -1.95139,-8.5 -0.95353,-2.25 -0.95352,-2.25 h -0.96429 -0.96428 l -0.34124,12.25 -0.34124,12.25 -2.61054,8 -2.61054,8 -4.58909,13 -4.58908,13 -0.0163,2.75 L 320,287 h -18 -18 z"
       id="path1" />
  </g>
</svg>
